{
  "accessors": [
    {
      "bufferView": 2,
      "componentType": 5126,
      "count": 3169,
      "max": [
        7.273320198059082,
        -18.577678680419922,
        3.9814119338989258
      ],
      "min": [
        -7.273320198059082,
        -22.16193962097168,
        2.1675329208374023
      ],
      "type": "VEC3"
    },
    {
      "bufferView": 2,
      "byteOffset": 38028,
      "componentType": 5126,
      "count": 3169,
      "max": [
        1,
        1,
        1
      ],
      "min": [
        -1,
        -1,
        -1
      ],
      "type": "VEC3"
    },
    {
      "bufferView": 3,
      "componentType": 5126,
      "count": 3169,
      "max": [
        1,
        1,
        1,
        1
      ],
      "min": [
        -1,
        -1,
        -1,
        1
      ],
      "type": "VEC4"
    },
    {
      "bufferView": 1,
      "componentType": 5126,
      "count": 3169,
      "max": [
        1,
        1
      ],
      "min": [
        0,
        0
      ],
      "type": "VEC2"
    },
    {
      "bufferView": 0,
      "componentType": 5125,
      "count": 7464,
      "max": [
        3168
      ],
      "min": [
        0
      ],
      "type": "SCALAR"
    },
    {
      "bufferView": 2,
      "byteOffset": 76056,
      "componentType": 5126,
      "count": 910,
      "max": [
        16.03509521484375,
        -17.357246398925781,
        8.5031633377075195
      ],
      "min": [
        -16.03509521484375,
        -33.086631774902344,
        0.027893999591469765
      ],
      "type": "VEC3"
    },
    {
      "bufferView": 2,
      "byteOffset": 86976,
      "componentType": 5126,
      "count": 910,
      "max": [
        0.99757623672485352,
        0.99884563684463501,
        0.99822390079498291
      ],
      "min": [
        -0.99757623672485352,
        -1,
        -0.98461902141571045
      ],
      "type": "VEC3"
    },
    {
      "bufferView": 3,
      "byteOffset": 50704,
      "componentType": 5126,
      "count": 910,
      "max": [
        0.94447934627532959,
        0.99999874830245972,
        0.99654549360275269,
        1
      ],
      "min": [
        -0.9444764256477356,
        -0.85161560773849487,
        -0.99978744983673096,
        -1
      ],
      "type": "VEC4"
    },
    {
      "bufferView": 1,
      "byteOffset": 25352,
      "componentType": 5126,
      "count": 910,
      "max": [
        1,
        1
      ],
      "min": [
        0,
        0
      ],
      "type": "VEC2"
    },
    {
      "bufferView": 0,
      "byteOffset": 29856,
      "componentType": 5125,
      "count": 3378,
      "max": [
        909
      ],
      "min": [
        0
      ],
      "type": "SCALAR"
    },
    {
      "bufferView": 2,
      "byteOffset": 97896,
      "componentType": 5126,
      "count": 637,
      "max": [
        8.36883544921875,
        -9.0714635848999023,
        9.3790473937988281
      ],
      "min": [
        -8.36883544921875,
        -19.397581100463867,
        4.4774889945983887
      ],
      "type": "VEC3"
    },
    {
      "bufferView": 2,
      "byteOffset": 105540,
      "componentType": 5126,
      "count": 637,
      "max": [
        0.99841225147247314,
        0.99835962057113647,
        0.99966514110565186
      ],
      "min": [
        -0.98686361312866211,
        -0.99888277053833008,
        -0.99611735343933105
      ],
      "type": "VEC3"
    },
    {
      "bufferView": 3,
      "byteOffset": 65264,
      "componentType": 5126,
      "count": 637,
      "max": [
        0.97651535272598267,
        0.99884408712387085,
        0.98690229654312134,
        1
      ],
      "min": [
        -0.97651350498199463,
        -0.99988096952438354,
        -0.99399346113204956,
        1
      ],
      "type": "VEC4"
    },
    {
      "bufferView": 1,
      "byteOffset": 32632,
      "componentType": 5126,
      "count": 637,
      "max": [
        0.99982798099517822,
        0.83926200866699219
      ],
      "min": [
        0.0001720000000204891,
        0.0001720000000204891
      ],
      "type": "VEC2"
    },
    {
      "bufferView": 0,
      "byteOffset": 43368,
      "componentType": 5125,
      "count": 2268,
      "max": [
        636
      ],
      "min": [
        0
      ],
      "type": "SCALAR"
    },
    {
      "bufferView": 2,
      "byteOffset": 113184,
      "componentType": 5126,
      "count": 714,
      "max": [
        2.6612141132354736,
        0.99040597677230835,
        9.3701000213623047
      ],
      "min": [
        -2.6612141132354736,
        -10.176854133605957,
        6.009739875793457
      ],
      "type": "VEC3"
    },
    {
      "bufferView": 2,
      "byteOffset": 121752,
      "componentType": 5126,
      "count": 714,
      "max": [
        0.99598634243011475,
        0.99999701976776123,
        0.99949133396148682
      ],
      "min": [
        -0.99598634243011475,
        -1,
        -0.99997538328170776
      ],
      "type": "VEC3"
    },
    {
      "bufferView": 3,
      "byteOffset": 75456,
      "componentType": 5126,
      "count": 714,
      "max": [
        1,
        0.77636778354644775,
        0.99997109174728394,
        1
      ],
      "min": [
        -0.87569844722747803,
        -0.89563637971878052,
        -0.99999934434890747,
        1
      ],
      "type": "VEC4"
    },
    {
      "bufferView": 1,
      "byteOffset": 37728,
      "componentType": 5126,
      "count": 714,
      "max": [
        1,
        1
      ],
      "min": [
        0,
        0
      ],
      "type": "VEC2"
    },
    {
      "bufferView": 0,
      "byteOffset": 52440,
      "componentType": 5125,
      "count": 2628,
      "max": [
        713
      ],
      "min": [
        0
      ],
      "type": "SCALAR"
    },
    {
      "bufferView": 2,
      "byteOffset": 130320,
      "componentType": 5126,
      "count": 2427,
      "max": [
        9.1114444732666016,
        -26.122341156005859,
        7.6176052093505859
      ],
      "min": [
        -9.1114444732666016,
        -32.746242523193359,
        3.5802109241485596
      ],
      "type": "VEC3"
    },
    {
      "bufferView": 2,
      "byteOffset": 159444,
      "componentType": 5126,
      "count": 2427,
      "max": [
        1,
        1,
        1
      ],
      "min": [
        -1,
        -1,
        -1
      ],
      "type": "VEC3"
    },
    {
      "bufferView": 3,
      "byteOffset": 86880,
      "componentType": 5126,
      "count": 2427,
      "max": [
        1,
        1,
        1,
        1
      ],
      "min": [
        -1,
        -1,
        -1,
        1
      ],
      "type": "VEC4"
    },
    {
      "bufferView": 1,
      "byteOffset": 43440,
      "componentType": 5126,
      "count": 2427,
      "max": [
        1,
        1
      ],
      "min": [
        0,
        0
      ],
      "type": "VEC2"
    },
    {
      "bufferView": 0,
      "byteOffset": 62952,
      "componentType": 5125,
      "count": 5328,
      "max": [
        2426
      ],
      "min": [
        0
      ],
      "type": "SCALAR"
    }
  ],
  "asset": {
    "extras": {
      "author": "Alastoir De Faruh (https://sketchfab.com/alfaruh)",
      "license": "CC-BY-4.0 (http://creativecommons.org/licenses/by/4.0/)",
      "source": "https://sketchfab.com/3d-models/cobr-a-14588b866bb5461c853947e4b55da750",
      "title": "COBR-A"
    },
    "generator": "Sketchfab-8.42.0",
    "version": "2.0"
  },
  "bufferViews": [
    {
      "buffer": 0,
      "byteLength": 84264,
      "byteOffset": 0,
      "name": "floatBufferViews",
      "target": 34963
    },
    {
      "buffer": 0,
      "byteLength": 62856,
      "byteOffset": 84264,
      "byteStride": 8,
      "name": "floatBufferViews",
      "target": 34962
    },
    {
      "buffer": 0,
      "byteLength": 188568,
      "byteOffset": 147120,
      "byteStride": 12,
      "name": "floatBufferViews",
      "target": 34962
    },
    {
      "buffer": 0,
      "byteLength": 125712,
      "byteOffset": 335688,
      "byteStride": 16,
      "name": "floatBufferViews",
      "target": 34962
    }
  ],
  "buffers": [
    {
      "byteLength": 461400,
      "uri": "scene.bin"
    }
  ],
  "images": [
    {
      "uri": "textures/Engine_baseColor.jpeg"
    },
    {
      "uri": "textures/Engine_metallicRoughness.png"
    },
    {
      "uri": "textures/Engine_emissive.jpeg"
    },
    {
      "uri": "textures/Engine_normal.png"
    },
    {
      "uri": "textures/Head_baseColor.jpeg"
    },
    {
      "uri": "textures/Head_metallicRoughness.png"
    },
    {
      "uri": "textures/Head_emissive.jpeg"
    },
    {
      "uri": "textures/Head_normal.png"
    },
    {
      "uri": "textures/Middle_baseColor.jpeg"
    },
    {
      "uri": "textures/Middle_metallicRoughness.png"
    },
    {
      "uri": "textures/Middle_emissive.jpeg"
    },
    {
      "uri": "textures/Middle_normal.png"
    },
    {
      "uri": "textures/Back_baseColor.jpeg"
    },
    {
      "uri": "textures/Back_metallicRoughness.png"
    },
    {
      "uri": "textures/Back_normal.png"
    },
    {
      "uri": "textures/Weapon_baseColor.jpeg"
    },
    {
      "uri": "textures/Weapon_metallicRoughness.png"
    },
    {
      "uri": "textures/Weapon_normal.png"
    }
  ],
  "materials": [
    {
      "doubleSided": true,
      "emissiveFactor": [
        1,
        1,
        1
      ],
      "emissiveTexture": {
        "index": 2,
        "texCoord": 0
      },
      "name": "Engine",
      "normalTexture": {
        "index": 3,
        "scale": 1,
        "texCoord": 0
      },
      "pbrMetallicRoughness": {
        "baseColorFactor": [
          1,
          1,
          1,
          1
        ],
        "baseColorTexture": {
          "index": 0,
          "texCoord": 0
        },
        "metallicFactor": 1,
        "metallicRoughnessTexture": {
          "index": 1,
          "texCoord": 0
        },
        "roughnessFactor": 1
      }
    },
    {
      "doubleSided": true,
      "emissiveFactor": [
        1,
        1,
        1
      ],
      "emissiveTexture": {
        "index": 6,
        "texCoord": 0
      },
      "name": "Head",
      "normalTexture": {
        "index": 7,
        "scale": 1,
        "texCoord": 0
      },
      "pbrMetallicRoughness": {
        "baseColorFactor": [
          1,
          1,
          1,
          1
        ],
        "baseColorTexture": {
          "index": 4,
          "texCoord": 0
        },
        "metallicFactor": 1,
        "metallicRoughnessTexture": {
          "index": 5,
          "texCoord": 0
        },
        "roughnessFactor": 1
      }
    },
    {
      "doubleSided": true,
      "emissiveFactor": [
        1,
        1,
        1
      ],
      "emissiveTexture": {
        "index": 10,
        "texCoord": 0
      },
      "name": "Middle",
      "normalTexture": {
        "index": 11,
        "scale": 1,
        "texCoord": 0
      },
      "pbrMetallicRoughness": {
        "baseColorFactor": [
          1,
          1,
          1,
          1
        ],
        "baseColorTexture": {
          "index": 8,
          "texCoord": 0
        },
        "metallicFactor": 1,
        "metallicRoughnessTexture": {
          "index": 9,
          "texCoord": 0
        },
        "roughnessFactor": 1
      }
    },
    {
      "doubleSided": true,
      "name": "Back",
      "normalTexture": {
        "index": 14,
        "scale": 1,
        "texCoord": 0
      },
      "pbrMetallicRoughness": {
        "baseColorFactor": [
          1,
          1,
          1,
          1
        ],
        "baseColorTexture": {
          "index": 12,
          "texCoord": 0
        },
        "metallicFactor": 1,
        "metallicRoughnessTexture": {
          "index": 13,
          "texCoord": 0
        },
        "roughnessFactor": 1
      }
    },
    {
      "doubleSided": true,
      "name": "Weapon",
      "normalTexture": {
        "index": 17,
        "scale": 1,
        "texCoord": 0
      },
      "pbrMetallicRoughness": {
        "baseColorFactor": [
          1,
          1,
          1,
          1
        ],
        "baseColorTexture": {
          "index": 15,
          "texCoord": 0
        },
        "metallicFactor": 1,
        "metallicRoughnessTexture": {
          "index": 16,
          "texCoord": 0
        },
        "roughnessFactor": 1
      }
    }
  ],
  "meshes": [
    {
      "name": "defaultMaterial",
      "primitives": [
        {
          "attributes": {
            "NORMAL": 1,
            "POSITION": 0,
            "TANGENT": 2,
            "TEXCOORD_0": 3
          },
          "indices": 4,
          "material": 4,
          "mode": 4
        }
      ]
    },
    {
      "name": "defaultMaterial",
      "primitives": [
        {
          "attributes": {
            "NORMAL": 6,
            "POSITION": 5,
            "TANGENT": 7,
            "TEXCOORD_0": 8
          },
          "indices": 9,
          "material": 3,
          "mode": 4
        }
      ]
    },
    {
      "name": "defaultMaterial",
      "primitives": [
        {
          "attributes": {
            "NORMAL": 11,
            "POSITION": 10,
            "TANGENT": 12,
            "TEXCOORD_0": 13
          },
          "indices": 14,
          "material": 2,
          "mode": 4
        }
      ]
    },
    {
      "name": "defaultMaterial",
      "primitives": [
        {
          "attributes": {
            "NORMAL": 16,
            "POSITION": 15,
            "TANGENT": 17,
            "TEXCOORD_0": 18
          },
          "indices": 19,
          "material": 1,
          "mode": 4
        }
      ]
    },
    {
      "name": "defaultMaterial",
      "primitives": [
        {
          "attributes": {
            "NORMAL": 21,
            "POSITION": 20,
            "TANGENT": 22,
            "TEXCOORD_0": 23
          },
          "indices": 24,
          "material": 0,
          "mode": 4
        }
      ]
    }
  ],
  "nodes": [
    {
      "children": [
        1
      ],
      "name": "RootNode (gltf orientation matrix)",
      "rotation": [
        -0.70710678118654746,
        -0,
        -0,
        0.70710678118654757
      ]
    },
    {
      "children": [
        2
      ],
      "name": "RootNode (model correction matrix)"
    },
    {
      "children": [
        3,
        5,
        7,
        9,
        11
      ],
      "matrix": [
        1,
        0,
        0,
        0,
        0,
        -4.3711390063094768e-08,
        0.999999999999999,
        0,
        0,
        -0.999999999999999,
        -4.3711390063094768e-08,
        0,
        0,
        0,
        0,
        1
      ],
      "name": "Collada visual scene group"
    },
    {
      "children": [
        4
      ],
      "matrix": [
        100,
        0,
        0,
        0,
        0,
        -3.9999999999999998e-06,
        -100,
        0,
        0,
        100,
        -3.9999999999999998e-06,
        0,
        0,
        0,
        0,
        1
      ],
      "name": "Plane.004"
    },
    {
      "mesh": 0,
      "name": "defaultMaterial"
    },
    {
      "children": [
        6
      ],
      "matrix": [
        100,
        0,
        0,
        0,
        0,
        -3.9999999999999998e-06,
        -100,
        0,
        0,
        100,
        -3.9999999999999998e-06,
        0,
        0,
        0,
        0,
        1
      ],
      "name": "Plane.003"
    },
    {
      "mesh": 1,
      "name": "defaultMaterial"
    },
    {
      "children": [
        8
      ],
      "matrix": [
        100,
        0,
        0,
        0,
        0,
        -3.9999999999999998e-06,
        -100,
        0,
        0,
        100,
        -3.9999999999999998e-06,
        0,
        0,
        0,
        0,
        1
      ],
      "name": "Plane.002"
    },
    {
      "mesh": 2,
      "name": "defaultMaterial"
    },
    {
      "children": [
        10
      ],
      "matrix": [
        100,
        0,
        0,
        0,
        0,
        -3.9999999999999998e-06,
        -100,
        0,
        0,
        100,
        -3.9999999999999998e-06,
        0,
        0,
        0,
        0,
        1
      ],
      "name": "Plane.001"
    },
    {
      "mesh": 3,
      "name": "defaultMaterial"
    },
    {
      "children": [
        12
      ],
      "matrix": [
        100,
        0,
        0,
        0,
        0,
        -3.9999999999999998e-06,
        -100,
        0,
        0,
        100,
        -3.9999999999999998e-06,
        0,
        0,
        0,
        0,
        1
      ],
      "name": "Plane"
    },
    {
      "mesh": 4,
      "name": "defaultMaterial"
    }
  ],
  "samplers": [
    {
      "magFilter": 9729,
      "minFilter": 9987,
      "wrapS": 10497,
      "wrapT": 10497
    }
  ],
  "scene": 0,
  "scenes": [
    {
      "name": "OSG_Scene",
      "nodes": [
        0
      ]
    }
  ],
  "textures": [
    {
      "sampler": 0,
      "source": 0
    },
    {
      "sampler": 0,
      "source": 1
    },
    {
      "sampler": 0,
      "source": 2
    },
    {
      "sampler": 0,
      "source": 3
    },
    {
      "sampler": 0,
      "source": 4
    },
    {
      "sampler": 0,
      "source": 5
    },
    {
      "sampler": 0,
      "source": 6
    },
    {
      "sampler": 0,
      "source": 7
    },
    {
      "sampler": 0,
      "source": 8
    },
    {
      "sampler": 0,
      "source": 9
    },
    {
      "sampler": 0,
      "source": 10
    },
    {
      "sampler": 0,
      "source": 11
    },
    {
      "sampler": 0,
      "source": 12
    },
    {
      "sampler": 0,
      "source": 13
    },
    {
      "sampler": 0,
      "source": 14
    },
    {
      "sampler": 0,
      "source": 15
    },
    {
      "sampler": 0,
      "source": 16
    },
    {
      "sampler": 0,
      "source": 17
    }
  ]
}

