{
  "accessors": [
    {
      "bufferView": 2,
      "componentType": 5126,
      "count": 65532,
      "max": [
        0.13997800648212433,
        0.15545499324798584,
        0.40934300422668457
      ],
      "min": [
        -0.14334200322628021,
        -0.18391899764537811,
        0.0045739999040961266
      ],
      "type": "VEC3"
    },
    {
      "bufferView": 2,
      "byteOffset": 786384,
      "componentType": 5126,
      "count": 65532,
      "max": [
        0.99978333711624146,
        0.99968665838241577,
        0.99998462200164795
      ],
      "min": [
        -0.99978333711624146,
        -0.99998080730438232,
        -0.99999880790710449
      ],
      "type": "VEC3"
    },
    {
      "bufferView": 3,
      "componentType": 5126,
      "count": 65532,
      "max": [
        1,
        0.99998223781585693,
        0.99994587898254395,
        1
      ],
      "min": [
        -1,
        -0.99988538026809692,
        -0.99985718727111816,
        -1
      ],
      "type": "VEC4"
    },
    {
      "bufferView": 1,
      "componentType": 5126,
      "count": 65532,
      "max": [
        0.99966800212860107,
        0.99928200244903564
      ],
      "min": [
        0.00082000001566484571,
        -0.0041269999928772449
      ],
      "type": "VEC2"
    },
    {
      "bufferView": 0,
      "componentType": 5125,
      "count": 295974,
      "max": [
        65531
      ],
      "min": [
        0
      ],
      "type": "SCALAR"
    },
    {
      "bufferView": 2,
      "byteOffset": 1572768,
      "componentType": 5126,
      "count": 26467,
      "max": [
        0.13278099894523621,
        0.16073800623416901,
        0.41005301475524902
      ],
      "min": [
        -0.13614499568939209,
        -0.15434099733829498,
        0.032554000616073608
      ],
      "type": "VEC3"
    },
    {
      "bufferView": 2,
      "byteOffset": 1890372,
      "componentType": 5126,
      "count": 26467,
      "max": [
        0.99989438056945801,
        0.9995993971824646,
        0.99980336427688599
      ],
      "min": [
        -0.99992775917053223,
        -0.99950093030929565,
        -0.99998140335083008
      ],
      "type": "VEC3"
    },
    {
      "bufferView": 3,
      "byteOffset": 1048512,
      "componentType": 5126,
      "count": 26467,
      "max": [
        0.99996012449264526,
        0.99993956089019775,
        0.99999994039535522,
        1
      ],
      "min": [
        -0.99997633695602417,
        -0.99999314546585083,
        -0.99992179870605469,
        -1
      ],
      "type": "VEC4"
    },
    {
      "bufferView": 1,
      "byteOffset": 524256,
      "componentType": 5126,
      "count": 26467,
      "max": [
        0.98809999227523804,
        0.98376500606536865
      ],
      "min": [
        0.00082000001566484571,
        0.00070400000549852848
      ],
      "type": "VEC2"
    },
    {
      "bufferView": 0,
      "byteOffset": 1183896,
      "componentType": 5125,
      "count": 141912,
      "max": [
        26466
      ],
      "min": [
        0
      ],
      "type": "SCALAR"
    }
  ],
  "asset": {
    "extras": {
      "author": "Sololopenko (https://sketchfab.com/Sololopenko)",
      "license": "CC-BY-4.0 (http://creativecommons.org/licenses/by/4.0/)",
      "source": "https://sketchfab.com/3d-models/helmet-ba0414d87a774088bea1b2a5cbb6d26d",
      "title": "Helmet"
    },
    "generator": "Sketchfab-7.95.0",
    "version": "2.0"
  },
  "bufferViews": [
    {
      "buffer": 0,
      "byteLength": 1751544,
      "byteOffset": 0,
      "name": "floatBufferViews",
      "target": 34963
    },
    {
      "buffer": 0,
      "byteLength": 735992,
      "byteOffset": 1751544,
      "byteStride": 8,
      "name": "floatBufferViews",
      "target": 34962
    },
    {
      "buffer": 0,
      "byteLength": 2207976,
      "byteOffset": 2487536,
      "byteStride": 12,
      "name": "floatBufferViews",
      "target": 34962
    },
    {
      "buffer": 0,
      "byteLength": 1471984,
      "byteOffset": 4695512,
      "byteStride": 16,
      "name": "floatBufferViews",
      "target": 34962
    }
  ],
  "buffers": [
    {
      "byteLength": 6167496,
      "uri": "scene.bin"
    }
  ],
  "images": [
    {
      "uri": "textures/helmet_baseColor.png"
    },
    {
      "uri": "textures/helmet_metallicRoughness.png"
    },
    {
      "uri": "textures/helmet_normal.png"
    }
  ],
  "materials": [
    {
      "alphaMode": "BLEND",
      "doubleSided": true,
      "name": "helmet",
      "normalTexture": {
        "index": 2,
        "scale": 1,
        "texCoord": 0
      },
      "occlusionTexture": {
        "index": 1,
        "strength": 1,
        "texCoord": 0
      },
      "pbrMetallicRoughness": {
        "baseColorFactor": [
          1,
          1,
          1,
          1
        ],
        "baseColorTexture": {
          "index": 0,
          "texCoord": 0
        },
        "metallicFactor": 1,
        "metallicRoughnessTexture": {
          "index": 1,
          "texCoord": 0
        },
        "roughnessFactor": 1
      }
    }
  ],
  "meshes": [
    {
      "primitives": [
        {
          "attributes": {
            "NORMAL": 1,
            "POSITION": 0,
            "TANGENT": 2,
            "TEXCOORD_0": 3
          },
          "indices": 4,
          "material": 0,
          "mode": 4
        }
      ]
    },
    {
      "primitives": [
        {
          "attributes": {
            "NORMAL": 6,
            "POSITION": 5,
            "TANGENT": 7,
            "TEXCOORD_0": 8
          },
          "indices": 9,
          "material": 0,
          "mode": 4
        }
      ]
    }
  ],
  "nodes": [
    {
      "children": [
        1
      ],
      "name": "RootNode (gltf orientation matrix)",
      "rotation": [
        -0.70710678118654746,
        -0,
        -0,
        0.70710678118654757
      ]
    },
    {
      "children": [
        2
      ],
      "name": "RootNode (model correction matrix)"
    },
    {
      "children": [
        3,
        4
      ],
      "name": "helmet.obj.cleaner.materialmerger.gles"
    },
    {
      "mesh": 0,
      "name": ""
    },
    {
      "mesh": 1,
      "name": ""
    }
  ],
  "samplers": [
    {
      "magFilter": 9729,
      "minFilter": 9987,
      "wrapS": 10497,
      "wrapT": 10497
    }
  ],
  "scene": 0,
  "scenes": [
    {
      "name": "OSG_Scene",
      "nodes": [
        0
      ]
    }
  ],
  "textures": [
    {
      "sampler": 0,
      "source": 0
    },
    {
      "sampler": 0,
      "source": 1
    },
    {
      "sampler": 0,
      "source": 2
    }
  ]
}

